Coordinates
version=1
nRows=24
nColumns=29
inDegrees=yes

Units are S.I. units (second, meters, Newtons, ...)
Angles are in degrees.

endheader
time	pelvis_rz	pelvis_rx	pelvis_ry	pelvis_tx	pelvis_ty	pelvis_tz	r_hip_flexion	r_hip_adduction	r_hip_rotation	r_knee_angle	tp_r3	tp_tx	tp_ty	tp_tz	r_ankle_angle	r_subt_angle	r_mtp_angle	l_hip_flexion	l_hip_adduction	l_hip_rotation	l_knee_angle	ltp_r3	ltp_tx	ltp_ty	ltp_tz	l_ankle_angle	l_subt_angle	l_mtp_angle
      2.40600000	     -0.48411707	     -0.15532959	     91.93924657	     -0.37917490	     -0.02791451	      2.94721490	      1.04009893	    -14.57320420	    -18.36465012	    -28.54480725	     15.27412538	      0.04537407	     -0.02155236	      0.00240000	    -29.71154926	    -18.53984564	      0.00000000	    -12.58678315	      6.98679668	    -18.28123023	     -3.61864849	      3.94391338	      0.04920004	     -0.02254988	     -0.00240000	    -21.70186019	    -15.80324319	      0.00000000
      2.44600000	     -0.59429740	     -0.41981107	     91.39938526	     -0.38175159	     -0.02789762	      2.95071177	      0.33857996	    -14.61887429	    -18.32862046	    -28.07510819	     15.21059147	      0.04546362	     -0.02157142	      0.00240000	    -29.71242598	    -18.51769118	      0.00000000	    -11.97713240	      7.62142779	    -18.21829639	     -3.19341907	      3.51579585	      0.04924906	     -0.02256635	     -0.00240000	    -21.36022498	    -15.84569467	      0.00000000
      2.48600000	     -0.67405487	     -0.60392505	     90.87410169	     -0.38388505	     -0.02782217	      2.95400823	     -0.27588197	    -14.69025510	    -18.32094878	    -27.72428445	     15.16181233	      0.04553008	     -0.02158567	      0.00240000	    -29.72431213	    -18.45275401	      0.00000000	    -11.40711405	      8.13817878	    -18.16028262	     -2.90491601	      3.21895963	      0.04928201	     -0.02257750	     -0.00240000	    -21.12168124	    -15.87663128	      0.00000000
      2.52600000	     -0.83668957	     -0.67074698	     90.09109132	     -0.38531332	     -0.02782904	      2.95713999	     -0.69064616	    -15.01750129	    -18.36555034	    -27.66853421	     15.15394971	      0.04554061	     -0.02158794	      0.00240000	    -29.72728860	    -18.25631383	      0.00000000	    -11.08057112	      8.77661637	    -18.04114130	     -2.41834719	      2.70660250	      0.04933702	     -0.02259629	     -0.00240000	    -20.72352531	    -16.00021466	      0.00000000
      2.56600000	     -0.83025503	     -0.74245919	     89.58381162	     -0.38676519	     -0.02757892	      2.96009285	     -1.12877975	    -15.19153393	    -18.40943974	    -27.42010008	     15.11852803	      0.04558742	     -0.02159803	      0.00240000	    -29.73946536	    -18.15785086	      0.00000000	    -10.62162883	      9.08617362	    -17.99976295	     -2.23312211	      2.50764191	      0.04935777	     -0.02260343	     -0.00240000	    -20.60635122	    -16.03188042	      0.00000000
      2.60600000	      0.58392714	     -0.49501043	     88.43371027	     -0.39014662	     -0.02422077	      2.96561018	     -1.05166697	    -15.10356835	    -18.69130372	    -27.32117944	     15.10423748	      0.04560600	     -0.02160206	      0.00240000	    -29.69661072	    -17.79704769	      0.00000000	    -10.26014237	      8.25004601	    -17.94980868	     -1.71172038	      1.93578990	      0.04941565	     -0.02262350	     -0.00240000	    -20.66110803	    -16.08471467	      0.00000000
      2.64600000	      2.94463561	     -0.25530096	     87.80659113	     -0.39283192	     -0.01997351	      2.96801463	     -0.12796089	    -13.98372687	    -18.82420856	    -27.82146215	     15.17544506	      0.04551171	     -0.02158172	      0.00240000	    -29.58270982	    -17.82518196	      0.00000000	    -10.30038477	      6.16036618	    -18.01043838	     -1.39319333	      1.57778284	      0.04945062	     -0.02263574	     -0.00240000	    -21.25476667	    -16.88150840	      0.00000000
      2.68600000	      6.33891738	     -0.50091325	     86.67850898	     -0.39585915	     -0.01466878	      2.96999097	      2.25316540	    -12.51090386	    -19.23433719	    -28.99321210	     15.33307036	      0.04528799	     -0.02153418	      0.00240000	    -27.09771750	    -18.89074975	      0.00000000	     -9.99908256	      3.04185038	    -18.02397850	     -1.08957990	      1.23036676	      0.04948366	     -0.02264740	     -0.00240000	    -22.15816069	    -17.71820197	      0.00000000
      2.72600000	      9.89347285	     -0.62989747	     84.04228550	     -0.39714475	     -0.00886597	      2.97267712	      6.44098056	    -11.88279455	    -19.60597177	    -32.94536528	     15.80288129	      0.04450453	     -0.02137512	      0.00240000	    -18.35960900	    -17.95000745	      0.00000000	    -10.19708381	     -0.05434177	    -18.46011417	     -0.74319160	      0.82656430	      0.04952103	     -0.02266067	     -0.00240000	    -22.92803542	    -18.29560041	      0.00000000
      2.76600000	     12.74270853	     -2.88114712	     80.92320256	     -0.39746436	     -0.00597184	      2.97450374	     13.97178206	    -12.11751502	    -19.74098286	    -38.26595088	     16.32190705	      0.04338199	     -0.02116624	      0.00240000	     -8.09020366	    -13.30418791	      0.00000000	     -8.45847836	     -2.70330790	    -18.89539160	     -0.56894133	      0.62040363	      0.04953969	     -0.02266734	     -0.00240000	    -23.60486149	    -18.79475725	      0.00000000
      2.80600000	     14.22125690	     -4.54697762	     77.67517519	     -0.39736098	     -0.00330748	      2.97733880	     22.02536456	    -14.03846248	    -19.80067071	    -44.43435294	     16.77961284	      0.04198891	     -0.02093544	      0.00240000	      3.76889040	     -5.08744519	      0.00000000	     -7.28298996	     -4.02606986	    -19.22402659	     -0.45004625	      0.47856559	      0.04955237	     -0.02267189	     -0.00240000	    -24.60330222	    -19.14044801	      0.00000000
      2.84600000	     12.28210736	     -9.08728537	     73.27766418	     -0.39575694	     -0.00617258	      2.98205912	     42.15043692	    -22.22822016	    -19.83220331	    -56.81161900	     17.32123536	      0.03893470	     -0.02050568	      0.00240000	     18.26529903	      5.92812874	      0.00000000	     -2.09421098	     -2.67382970	    -19.56620002	     -0.40661520	      0.42651593	      0.04955700	     -0.02267355	     -0.00240000	    -26.10925267	    -19.50423691	      0.00000000
      2.88600000	     10.87835557	     -9.43325432	     72.94919693	     -0.39640936	     -0.00787479	      2.98403773	     50.18869295	    -27.35972809	    -19.82266763	    -62.09616384	     17.43569813	      0.03754191	     -0.02033155	      0.00240000	     21.80859055	      9.11801634	      0.00000000	     -1.01926192	     -1.29203306	    -19.60273815	     -0.43775558	      0.46384858	      0.04955368	     -0.02267236	     -0.00240000	    -26.40462566	    -19.54103296	      0.00000000
      2.92600000	      9.81702496	     -8.61651993	     73.88734313	     -0.39797067	     -0.00872128	      2.98530334	     56.24462459	    -32.75940419	    -19.80109037	    -66.43796482	     17.49250419	      0.03636040	     -0.02019847	      0.00240000	     24.14447792	     11.42036323	      0.00000000	     -1.12067778	      0.07121500	    -19.61369984	     -0.48525516	      0.52066740	      0.04954862	     -0.02267055	     -0.00240000	    -26.52901106	    -19.55373518	      0.00000000
      2.96600000	      9.29836296	     -7.37626661	     75.60711916	     -0.40003878	     -0.00882169	      2.98596635	     60.74174619	    -37.76818544	    -19.76678839	    -69.83848616	     17.51915440	      0.03540847	     -0.02011000	      0.00240000	     24.56382149	     12.73846991	      0.00000000	     -1.81196925	      0.96611361	    -19.61214367	     -0.56343028	      0.61385109	      0.04954028	     -0.02266756	     -0.00240000	    -26.31601381	    -19.55036631	      0.00000000
      3.00600000	      9.27642843	     -5.93849234	     77.54653990	     -0.40219997	     -0.00810237	      2.98635293	     64.11884430	    -42.08168548	    -19.71510195	    -72.38545840	     17.53140500	      0.03467862	     -0.02005734	      0.00240000	     25.02077484	     13.89551482	      0.00000000	     -2.89222622	      1.31628531	    -19.60942089	     -0.65255123	      0.71958380	      0.04953075	     -0.02266414	     -0.00240000	    -26.02083908	    -19.54494468	      0.00000000
      3.04600000	      9.55685180	     -4.60512955	     79.36400007	     -0.40395663	     -0.00697691	      2.98655198	     66.60482413	    -45.50486697	    -19.65339180	    -74.13566836	     17.53693841	      0.03416812	     -0.02002960	      0.00240000	     24.34992794	     14.17282651	      0.00000000	     -3.98488205	      1.22602168	    -19.59880089	     -0.76851721	      0.85635698	      0.04951831	     -0.02265970	     -0.00240000	    -25.56226582	    -19.53231706	      0.00000000
      3.08600000	     10.77821806	     -2.54414235	     81.35715676	     -0.40517089	     -0.00404734	      2.98678629	     69.83711963	    -49.00951641	    -19.47801471	    -75.65523230	     17.54031438	      0.03371870	     -0.02001194	      0.00240000	     21.96926709	     14.28229295	      0.00000000	     -5.92249310	      0.11984039	    -19.59988726	     -0.91549875	      1.02843722	      0.04950249	     -0.02265407	     -0.00240000	    -24.77659326	    -19.53063499	      0.00000000
      3.12600000	     11.55981641	     -1.56631283	     81.45110200	     -0.40475212	     -0.00234409	      2.98709062	     70.73285590	    -49.34624253	    -19.38898933	    -75.80865982	     17.54059625	      0.03367300	     -0.02001051	      0.00240000	     20.42287444	     14.12922278	      0.00000000	     -6.96466463	     -0.52683431	    -19.55585639	     -0.86849765	      0.97355976	      0.04950755	     -0.02265587	     -0.00240000	    -23.20456833	    -19.47931041	      0.00000000
      3.16600000	     12.18925009	     -0.79717805	     81.52155781	     -0.40415355	     -0.00071101	      2.98719249	     71.52462023	    -49.54406030	    -19.27416016	    -75.95849944	     17.54086137	      0.03362830	     -0.02000918	      0.00240000	     18.21716356	     13.84936966	      0.00000000	     -7.79219465	     -1.12679546	    -19.56317989	     -0.85721042	      0.96036168	      0.04950877	     -0.02265631	     -0.00240000	    -23.09494404	    -19.48698358	      0.00000000
      3.20600000	     12.65763481	      0.35840768	     81.66674629	     -0.40359067	      0.00117093	      2.98757783	     71.43471257	    -49.62132064	    -19.22393839	    -76.55796733	     17.54183996	      0.03344889	     -0.02000453	      0.00240000	     14.86373556	     11.97161618	      0.00000000	     -8.96737471	     -1.52978656	    -19.56843961	     -0.89022770	      0.99894443	      0.04950521	     -0.02265504	     -0.00240000	    -22.92542315	    -19.49052996	      0.00000000
      3.24600000	     12.71421451	      0.64972117	     81.66493748	     -0.40372401	      0.00151963	      2.98781348	     71.12265836	    -49.62112537	    -19.23555432	    -76.56636682	     17.54185277	      0.03344637	     -0.02000448	      0.00240000	     14.82766564	     11.98431491	      0.00000000	     -9.28095028	     -1.53908827	    -19.56725825	     -0.86246001	      0.96650935	      0.04950820	     -0.02265610	     -0.00240000	    -22.98859474	    -19.49333895	      0.00000000
      3.28600000	     12.95573191	      1.42046519	     81.93781581	     -0.40331018	      0.00272635	      2.98786628	     70.76772435	    -49.65680403	    -19.22171520	    -77.33149292	     17.54293042	      0.03321598	     -0.02000014	      0.00240000	     10.68596384	     10.13523576	      0.00000000	     -9.99520910	     -1.78647967	    -19.57112038	     -0.92680035	      1.04159867	      0.04950127	     -0.02265364	     -0.00240000	    -22.85399996	    -19.49305065	      0.00000000
      3.32600000	     13.03563952	      2.17704689	     82.28174968	     -0.40321016	      0.00377298	      2.98801336	     70.05196565	    -49.66128759	    -19.22369593	    -78.04867096	     17.54380458	      0.03299860	     -0.01999776	      0.00240000	      5.68538084	      7.74258657	      0.00000000	    -10.63921905	     -1.87212220	    -19.57611670	     -1.00198576	      1.12900557	      0.04949315	     -0.02265076	     -0.00240000	    -22.83677654	    -19.49842108	      0.00000000
